<?xml version="1.0" encoding="utf-8" ?>
<svg baseProfile="tiny" height="100%" version="1.2" width="100%" xmlns="http://www.w3.org/2000/svg" xmlns:ev="http://www.w3.org/2001/xml-events" xmlns:xlink="http://www.w3.org/1999/xlink"><defs /><g fill="none" id="panneau"><rect fill="none" height="280" stroke="blue" stroke-width="1" width="200" x="0" y="0" /></g><g fill="none" id="planche_0"><polyline fill="none" points="201.0,1.0 251.0,1.0 251.0,74.0 201.0,74.0 201.0,1.0" stroke="black" stroke-width="1" /><circle cx="207.0" cy="73.05" r="0.25" stroke="pink" stroke-width="1" /><circle cx="245.0" cy="73.05" r="0.25" stroke="pink" stroke-width="1" /><circle cx="203.8" cy="73.05" r="0.4" stroke="red" stroke-width="1" /><circle cx="241.8" cy="73.05" r="0.4" stroke="red" stroke-width="1" /><circle cx="210.2" cy="73.05" r="0.4" stroke="red" stroke-width="1" /><circle cx="248.2" cy="73.05" r="0.4" stroke="red" stroke-width="1" /><circle cx="201.95" cy="7.0" r="0.25" stroke="pink" stroke-width="1" /><circle cx="201.95" cy="66.1" r="0.25" stroke="pink" stroke-width="1" /><circle cx="201.95" cy="3.8" r="0.4" stroke="red" stroke-width="1" /><circle cx="201.95" cy="62.9" r="0.4" stroke="red" stroke-width="1" /><circle cx="201.95" cy="10.2" r="0.4" stroke="red" stroke-width="1" /><circle cx="201.95" cy="69.3" r="0.4" stroke="red" stroke-width="1" /><circle cx="246.0" cy="22.6333" r="0.25" stroke="red" stroke-width="1" /><circle cx="207.9" cy="22.6333" r="0.25" stroke="red" stroke-width="1" /><circle cx="246.0" cy="46.9667" r="0.25" stroke="red" stroke-width="1" /><circle cx="207.9" cy="46.9667" r="0.25" stroke="red" stroke-width="1" /><circle cx="203.85" cy="7.0" r="0.25" stroke="pink" stroke-width="1" /><circle cx="203.85" cy="17.4333" r="0.25" stroke="pink" stroke-width="1" /><circle cx="203.85" cy="3.8" r="0.4" stroke="red" stroke-width="1" /><circle cx="203.85" cy="14.2333" r="0.4" stroke="red" stroke-width="1" /><circle cx="203.85" cy="10.2" r="0.4" stroke="red" stroke-width="1" /><circle cx="203.85" cy="20.6333" r="0.4" stroke="red" stroke-width="1" /><circle cx="203.85" cy="66.1" r="0.25" stroke="pink" stroke-width="1" /><circle cx="203.85" cy="55.6667" r="0.25" stroke="pink" stroke-width="1" /><circle cx="203.85" cy="62.9" r="0.4" stroke="red" stroke-width="1" /><circle cx="203.85" cy="52.4667" r="0.4" stroke="red" stroke-width="1" /><circle cx="203.85" cy="69.3" r="0.4" stroke="red" stroke-width="1" /><circle cx="203.85" cy="58.8667" r="0.4" stroke="red" stroke-width="1" /></g><g fill="none" id="planche_1"><polyline fill="none" points="253.0,74.0 303.0,74.0 303.0,1.0 253.0,1.0 253.0,74.0" stroke="black" stroke-width="1" /><circle cx="259.0" cy="1.95" r="0.25" stroke="pink" stroke-width="1" /><circle cx="297.0" cy="1.95" r="0.25" stroke="pink" stroke-width="1" /><circle cx="262.2" cy="1.95" r="0.4" stroke="red" stroke-width="1" /><circle cx="300.2" cy="1.95" r="0.4" stroke="red" stroke-width="1" /><circle cx="255.8" cy="1.95" r="0.4" stroke="red" stroke-width="1" /><circle cx="293.8" cy="1.95" r="0.4" stroke="red" stroke-width="1" /><circle cx="253.95" cy="68.0" r="0.25" stroke="pink" stroke-width="1" /><circle cx="253.95" cy="8.9" r="0.25" stroke="pink" stroke-width="1" /><circle cx="253.95" cy="64.8" r="0.4" stroke="red" stroke-width="1" /><circle cx="253.95" cy="5.7" r="0.4" stroke="red" stroke-width="1" /><circle cx="253.95" cy="71.2" r="0.4" stroke="red" stroke-width="1" /><circle cx="253.95" cy="12.1" r="0.4" stroke="red" stroke-width="1" /><circle cx="298.0" cy="52.3667" r="0.25" stroke="red" stroke-width="1" /><circle cx="259.9" cy="52.3667" r="0.25" stroke="red" stroke-width="1" /><circle cx="298.0" cy="28.0333" r="0.25" stroke="red" stroke-width="1" /><circle cx="259.9" cy="28.0333" r="0.25" stroke="red" stroke-width="1" /><circle cx="255.85" cy="68.0" r="0.25" stroke="pink" stroke-width="1" /><circle cx="255.85" cy="57.5667" r="0.25" stroke="pink" stroke-width="1" /><circle cx="255.85" cy="64.8" r="0.4" stroke="red" stroke-width="1" /><circle cx="255.85" cy="54.3667" r="0.4" stroke="red" stroke-width="1" /><circle cx="255.85" cy="71.2" r="0.4" stroke="red" stroke-width="1" /><circle cx="255.85" cy="60.7667" r="0.4" stroke="red" stroke-width="1" /><circle cx="255.85" cy="8.9" r="0.25" stroke="pink" stroke-width="1" /><circle cx="255.85" cy="19.3333" r="0.25" stroke="pink" stroke-width="1" /><circle cx="255.85" cy="5.7" r="0.4" stroke="red" stroke-width="1" /><circle cx="255.85" cy="16.1333" r="0.4" stroke="red" stroke-width="1" /><circle cx="255.85" cy="12.1" r="0.4" stroke="red" stroke-width="1" /><circle cx="255.85" cy="22.5333" r="0.4" stroke="red" stroke-width="1" /></g><g fill="none" id="planche_2"><circle cx="311.0" cy="4.4" r="0.75" stroke="green" stroke-width="1" /><circle cx="349.0" cy="4.4" r="0.75" stroke="green" stroke-width="1" /><circle cx="311.0" cy="163.8" r="0.75" stroke="green" stroke-width="1" /><circle cx="349.0" cy="163.8" r="0.75" stroke="green" stroke-width="1" /><polyline fill="none" points="305.0,1.0 355.0,1.0 355.0,167.2 305.0,167.2 305.0,1.0" stroke="black" stroke-width="1" /><circle cx="305.95" cy="7.0" r="0.25" stroke="pink" stroke-width="1" /><circle cx="305.95" cy="161.2" r="0.25" stroke="pink" stroke-width="1" /><circle cx="305.95" cy="3.8" r="0.4" stroke="red" stroke-width="1" /><circle cx="305.95" cy="158.0" r="0.4" stroke="red" stroke-width="1" /><circle cx="305.95" cy="10.2" r="0.4" stroke="red" stroke-width="1" /><circle cx="305.95" cy="164.4" r="0.4" stroke="red" stroke-width="1" /><circle cx="307.85" cy="7.0" r="0.25" stroke="pink" stroke-width="1" /><circle cx="307.85" cy="161.2" r="0.25" stroke="pink" stroke-width="1" /><circle cx="307.85" cy="3.8" r="0.4" stroke="red" stroke-width="1" /><circle cx="307.85" cy="158.0" r="0.4" stroke="red" stroke-width="1" /><circle cx="307.85" cy="10.2" r="0.4" stroke="red" stroke-width="1" /><circle cx="307.85" cy="164.4" r="0.4" stroke="red" stroke-width="1" /></g><g fill="none" id="planche_3"><circle cx="519.8" cy="7.0" r="0.75" stroke="green" stroke-width="1" /><circle cx="519.8" cy="66.1" r="0.75" stroke="green" stroke-width="1" /><circle cx="360.4" cy="7.0" r="0.75" stroke="green" stroke-width="1" /><circle cx="360.4" cy="66.1" r="0.75" stroke="green" stroke-width="1" /><circle cx="517.2" cy="68.7" r="0.75" stroke="green" stroke-width="1" /><circle cx="363.0" cy="68.7" r="0.75" stroke="green" stroke-width="1" /><polyline fill="none" points="523.2,1.0 357.0,1.0 357.0,72.1 523.2,72.1 523.2,1.0" stroke="black" stroke-width="1" /><circle cx="518.2" cy="22.6333" r="0.25" stroke="red" stroke-width="1" /><circle cx="362.0" cy="22.6333" r="0.25" stroke="red" stroke-width="1" /><circle cx="518.2" cy="46.9667" r="0.25" stroke="red" stroke-width="1" /><circle cx="362.0" cy="46.9667" r="0.25" stroke="red" stroke-width="1" /></g><g fill="none" id="planche_4"><circle cx="530.2" cy="166.2" r="0.25" stroke="red" stroke-width="1" /><circle cx="568.3" cy="166.2" r="0.25" stroke="red" stroke-width="1" /><circle cx="530.2" cy="2.0" r="0.25" stroke="red" stroke-width="1" /><circle cx="568.3" cy="2.0" r="0.25" stroke="red" stroke-width="1" /><circle cx="572.3" cy="162.2" r="0.25" stroke="red" stroke-width="1" /><circle cx="572.3" cy="6.0" r="0.25" stroke="red" stroke-width="1" /><polyline fill="none" points="525.2,167.2 525.2,1.0 573.3,1.0 573.3,167.2 525.2,167.2" stroke="black" stroke-width="1" /></g><g fill="none" id="planche_5"><circle cx="580.3" cy="166.2" r="0.25" stroke="red" stroke-width="1" /><circle cx="618.4" cy="166.2" r="0.25" stroke="red" stroke-width="1" /><circle cx="580.3" cy="2.0" r="0.25" stroke="red" stroke-width="1" /><circle cx="618.4" cy="2.0" r="0.25" stroke="red" stroke-width="1" /><circle cx="622.4" cy="162.2" r="0.25" stroke="red" stroke-width="1" /><circle cx="622.4" cy="6.0" r="0.25" stroke="red" stroke-width="1" /><polyline fill="none" points="575.3,167.2 575.3,1.0 623.4,1.0 623.4,167.2 575.3,167.2" stroke="black" stroke-width="1" /></g><g fill="none" id="planche_6"><circle cx="788.2" cy="7.0" r="0.75" stroke="green" stroke-width="1" /><circle cx="788.2" cy="17.4333" r="0.75" stroke="green" stroke-width="1" /><circle cx="628.8" cy="7.0" r="0.75" stroke="green" stroke-width="1" /><circle cx="628.8" cy="17.4333" r="0.75" stroke="green" stroke-width="1" /><polyline fill="none" points="791.6,1.0 625.4,1.0 625.4,23.4333 791.6,23.4333 791.6,1.0" stroke="black" stroke-width="1" /></g><g fill="none" id="planche_7"><circle cx="834.5" cy="10.3167" r="0.75" stroke="green" stroke-width="1" /><polyline fill="none" points="793.6,1.0 837.9,1.0 837.9,19.6333 793.6,19.6333 793.6,1.0" stroke="black" stroke-width="1" /><circle cx="794.55" cy="10.3167" r="0.25" stroke="pink" stroke-width="1" /><circle cx="794.55" cy="7.1167" r="0.4" stroke="red" stroke-width="1" /><circle cx="794.55" cy="13.5167" r="0.4" stroke="red" stroke-width="1" /><circle cx="831.9" cy="18.6833" r="0.25" stroke="pink" stroke-width="1" /><circle cx="801.5" cy="18.6833" r="0.25" stroke="pink" stroke-width="1" /><circle cx="828.7" cy="18.6833" r="0.4" stroke="red" stroke-width="1" /><circle cx="798.3" cy="18.6833" r="0.4" stroke="red" stroke-width="1" /><circle cx="835.1" cy="18.6833" r="0.4" stroke="red" stroke-width="1" /><circle cx="804.7" cy="18.6833" r="0.4" stroke="red" stroke-width="1" /></g><g fill="none" id="planche_8"><circle cx="880.8" cy="10.3167" r="0.75" stroke="green" stroke-width="1" /><polyline fill="none" points="839.9,19.6333 884.2,19.6333 884.2,1.0 839.9,1.0 839.9,19.6333" stroke="black" stroke-width="1" /><circle cx="840.85" cy="10.3167" r="0.25" stroke="pink" stroke-width="1" /><circle cx="840.85" cy="7.1167" r="0.4" stroke="red" stroke-width="1" /><circle cx="840.85" cy="13.5167" r="0.4" stroke="red" stroke-width="1" /><circle cx="878.2" cy="1.95" r="0.25" stroke="pink" stroke-width="1" /><circle cx="847.8" cy="1.95" r="0.25" stroke="pink" stroke-width="1" /><circle cx="881.4" cy="1.95" r="0.4" stroke="red" stroke-width="1" /><circle cx="851.0" cy="1.95" r="0.4" stroke="red" stroke-width="1" /><circle cx="875.0" cy="1.95" r="0.4" stroke="red" stroke-width="1" /><circle cx="844.6" cy="1.95" r="0.4" stroke="red" stroke-width="1" /></g><g fill="none" id="planche_9"><circle cx="889.6" cy="10.3167" r="0.75" stroke="green" stroke-width="1" /><circle cx="1042.0" cy="10.3167" r="0.75" stroke="green" stroke-width="1" /><polyline fill="none" points="886.2,19.6333 886.2,1.0 1045.4,1.0 1045.4,19.6333 886.2,19.6333" stroke="black" stroke-width="1" /><circle cx="892.2" cy="1.95" r="0.25" stroke="pink" stroke-width="1" /><circle cx="1039.4" cy="1.95" r="0.25" stroke="pink" stroke-width="1" /><circle cx="895.4" cy="1.95" r="0.4" stroke="red" stroke-width="1" /><circle cx="1042.6" cy="1.95" r="0.4" stroke="red" stroke-width="1" /><circle cx="889.0" cy="1.95" r="0.4" stroke="red" stroke-width="1" /><circle cx="1036.2" cy="1.95" r="0.4" stroke="red" stroke-width="1" /></g><g fill="none" id="planche_10"><circle cx="1086.4" cy="7.0" r="0.75" stroke="green" stroke-width="1" /><circle cx="1086.4" cy="154.2" r="0.75" stroke="green" stroke-width="1" /><circle cx="1083.8" cy="4.4" r="0.75" stroke="green" stroke-width="1" /><circle cx="1053.4" cy="4.4" r="0.75" stroke="green" stroke-width="1" /><circle cx="1083.8" cy="156.8" r="0.75" stroke="green" stroke-width="1" /><circle cx="1053.4" cy="156.8" r="0.75" stroke="green" stroke-width="1" /><circle cx="1050.8" cy="7.0" r="0.75" stroke="green" stroke-width="1" /><circle cx="1050.8" cy="154.2" r="0.75" stroke="green" stroke-width="1" /><polyline fill="none" points="1089.8,1.0 1089.8,160.2 1047.4,160.2 1047.4,1.0 1089.8,1.0" stroke="black" stroke-width="1" /></g><g fill="none" id="planche_11"><circle cx="1254.6" cy="17.4333" r="0.75" stroke="green" stroke-width="1" /><circle cx="1254.6" cy="7.0" r="0.75" stroke="green" stroke-width="1" /><circle cx="1095.2" cy="17.4333" r="0.75" stroke="green" stroke-width="1" /><circle cx="1095.2" cy="7.0" r="0.75" stroke="green" stroke-width="1" /><circle cx="1252.0" cy="20.0333" r="0.75" stroke="green" stroke-width="1" /><circle cx="1097.8" cy="20.0333" r="0.75" stroke="green" stroke-width="1" /><polyline fill="none" points="1258.0,23.4333 1091.8,23.4333 1091.8,1.0 1258.0,1.0 1258.0,23.4333" stroke="black" stroke-width="1" /></g><g fill="none" id="planche_0"><polyline fill="none" points="1260.0,401.0 1425.6,401.0 1425.6,422.8333 1260.0,422.8333 1260.0,401.0" stroke="black" stroke-width="1" /><circle cx="1262.25" cy="413.3167" r="0.25" stroke="pink" stroke-width="1" /><circle cx="1262.25" cy="410.1167" r="0.4" stroke="red" stroke-width="1" /><circle cx="1262.25" cy="416.5167" r="0.4" stroke="red" stroke-width="1" /><circle cx="1423.35" cy="413.3167" r="0.25" stroke="pink" stroke-width="1" /><circle cx="1423.35" cy="416.5167" r="0.4" stroke="red" stroke-width="1" /><circle cx="1423.35" cy="410.1167" r="0.4" stroke="red" stroke-width="1" /><circle cx="1269.2" cy="421.6833" r="0.25" stroke="pink" stroke-width="1" /><circle cx="1416.4" cy="421.6833" r="0.25" stroke="pink" stroke-width="1" /><circle cx="1266.0" cy="421.6833" r="0.4" stroke="red" stroke-width="1" /><circle cx="1413.2" cy="421.6833" r="0.4" stroke="red" stroke-width="1" /><circle cx="1272.4" cy="421.6833" r="0.4" stroke="red" stroke-width="1" /><circle cx="1419.6" cy="421.6833" r="0.4" stroke="red" stroke-width="1" /></g></svg>