<?xml version="1.0" encoding="utf-8" ?>
<svg baseProfile="tiny" height="100%" version="1.2" width="100%" xmlns="http://www.w3.org/2000/svg" xmlns:ev="http://www.w3.org/2001/xml-events" xmlns:xlink="http://www.w3.org/1999/xlink"><defs /><g fill="none" id="panneau"><rect fill="none" height="280" stroke="blue" stroke-width="1" width="200" x="0" y="0" /></g><g fill="none" id="planche_0"><polyline fill="none" points="201.0,1.0 241.0,1.0 241.0,61.0 201.0,61.0 201.0,1.0" stroke="black" stroke-width="1" /><circle cx="207.0" cy="60.05" r="0.25" stroke="pink" stroke-width="1" /><circle cx="235.0" cy="60.05" r="0.25" stroke="pink" stroke-width="1" /><circle cx="203.8" cy="60.05" r="0.4" stroke="red" stroke-width="1" /><circle cx="231.8" cy="60.05" r="0.4" stroke="red" stroke-width="1" /><circle cx="210.2" cy="60.05" r="0.4" stroke="red" stroke-width="1" /><circle cx="238.2" cy="60.05" r="0.4" stroke="red" stroke-width="1" /><circle cx="201.95" cy="7.0" r="0.25" stroke="pink" stroke-width="1" /><circle cx="201.95" cy="53.1" r="0.25" stroke="pink" stroke-width="1" /><circle cx="201.95" cy="3.8" r="0.4" stroke="red" stroke-width="1" /><circle cx="201.95" cy="49.9" r="0.4" stroke="red" stroke-width="1" /><circle cx="201.95" cy="10.2" r="0.4" stroke="red" stroke-width="1" /><circle cx="201.95" cy="56.3" r="0.4" stroke="red" stroke-width="1" /><circle cx="236.0" cy="28.3" r="0.25" stroke="red" stroke-width="1" /><circle cx="207.9" cy="28.3" r="0.25" stroke="red" stroke-width="1" /></g><g fill="none" id="planche_1"><polyline fill="none" points="243.0,61.0 283.0,61.0 283.0,1.0 243.0,1.0 243.0,61.0" stroke="black" stroke-width="1" /><circle cx="249.0" cy="1.95" r="0.25" stroke="pink" stroke-width="1" /><circle cx="277.0" cy="1.95" r="0.25" stroke="pink" stroke-width="1" /><circle cx="252.2" cy="1.95" r="0.4" stroke="red" stroke-width="1" /><circle cx="280.2" cy="1.95" r="0.4" stroke="red" stroke-width="1" /><circle cx="245.8" cy="1.95" r="0.4" stroke="red" stroke-width="1" /><circle cx="273.8" cy="1.95" r="0.4" stroke="red" stroke-width="1" /><circle cx="243.95" cy="55.0" r="0.25" stroke="pink" stroke-width="1" /><circle cx="243.95" cy="8.9" r="0.25" stroke="pink" stroke-width="1" /><circle cx="243.95" cy="51.8" r="0.4" stroke="red" stroke-width="1" /><circle cx="243.95" cy="5.7" r="0.4" stroke="red" stroke-width="1" /><circle cx="243.95" cy="58.2" r="0.4" stroke="red" stroke-width="1" /><circle cx="243.95" cy="12.1" r="0.4" stroke="red" stroke-width="1" /><circle cx="278.0" cy="33.7" r="0.25" stroke="red" stroke-width="1" /><circle cx="249.9" cy="33.7" r="0.25" stroke="red" stroke-width="1" /></g><g fill="none" id="planche_2"><circle cx="291.0" cy="4.4" r="0.75" stroke="green" stroke-width="1" /><circle cx="319.0" cy="4.4" r="0.75" stroke="green" stroke-width="1" /><circle cx="291.0" cy="193.8" r="0.75" stroke="green" stroke-width="1" /><circle cx="319.0" cy="193.8" r="0.75" stroke="green" stroke-width="1" /><polyline fill="none" points="285.0,1.0 325.0,1.0 325.0,197.2 285.0,197.2 285.0,1.0" stroke="black" stroke-width="1" /><circle cx="285.95" cy="7.0" r="0.25" stroke="pink" stroke-width="1" /><circle cx="285.95" cy="191.2" r="0.25" stroke="pink" stroke-width="1" /><circle cx="285.95" cy="3.8" r="0.4" stroke="red" stroke-width="1" /><circle cx="285.95" cy="188.0" r="0.4" stroke="red" stroke-width="1" /><circle cx="285.95" cy="10.2" r="0.4" stroke="red" stroke-width="1" /><circle cx="285.95" cy="194.4" r="0.4" stroke="red" stroke-width="1" /></g><g fill="none" id="planche_3"><circle cx="519.8" cy="7.0" r="0.75" stroke="green" stroke-width="1" /><circle cx="519.8" cy="53.1" r="0.75" stroke="green" stroke-width="1" /><circle cx="330.4" cy="7.0" r="0.75" stroke="green" stroke-width="1" /><circle cx="330.4" cy="53.1" r="0.75" stroke="green" stroke-width="1" /><circle cx="517.2" cy="55.7" r="0.75" stroke="green" stroke-width="1" /><circle cx="333.0" cy="55.7" r="0.75" stroke="green" stroke-width="1" /><polyline fill="none" points="523.2,1.0 327.0,1.0 327.0,59.1 523.2,59.1 523.2,1.0" stroke="black" stroke-width="1" /><circle cx="518.2" cy="28.3" r="0.25" stroke="red" stroke-width="1" /><circle cx="332.0" cy="28.3" r="0.25" stroke="red" stroke-width="1" /></g><g fill="none" id="planche_4"><circle cx="530.2" cy="196.2" r="0.25" stroke="red" stroke-width="1" /><circle cx="558.3" cy="196.2" r="0.25" stroke="red" stroke-width="1" /><circle cx="530.2" cy="2.0" r="0.25" stroke="red" stroke-width="1" /><circle cx="558.3" cy="2.0" r="0.25" stroke="red" stroke-width="1" /><circle cx="562.3" cy="192.2" r="0.25" stroke="red" stroke-width="1" /><circle cx="562.3" cy="6.0" r="0.25" stroke="red" stroke-width="1" /><polyline fill="none" points="525.2,197.2 525.2,1.0 563.3,1.0 563.3,197.2 525.2,197.2" stroke="black" stroke-width="1" /></g><g fill="none" id="planche_5"><circle cx="596.2" cy="19.3" r="0.75" stroke="green" stroke-width="1" /><circle cx="596.2" cy="7.0" r="0.75" stroke="green" stroke-width="1" /><polyline fill="none" points="565.3,1.0 599.6,1.0 599.6,25.3 565.3,25.3 565.3,1.0" stroke="black" stroke-width="1" /><circle cx="566.25" cy="7.0" r="0.25" stroke="pink" stroke-width="1" /><circle cx="566.25" cy="19.3" r="0.25" stroke="pink" stroke-width="1" /><circle cx="566.25" cy="3.8" r="0.4" stroke="red" stroke-width="1" /><circle cx="566.25" cy="16.1" r="0.4" stroke="red" stroke-width="1" /><circle cx="566.25" cy="10.2" r="0.4" stroke="red" stroke-width="1" /><circle cx="566.25" cy="22.5" r="0.4" stroke="red" stroke-width="1" /><circle cx="593.6" cy="24.35" r="0.25" stroke="pink" stroke-width="1" /><circle cx="573.2" cy="24.35" r="0.25" stroke="pink" stroke-width="1" /><circle cx="590.4" cy="24.35" r="0.4" stroke="red" stroke-width="1" /><circle cx="570.0" cy="24.35" r="0.4" stroke="red" stroke-width="1" /><circle cx="596.8" cy="24.35" r="0.4" stroke="red" stroke-width="1" /><circle cx="576.4" cy="24.35" r="0.4" stroke="red" stroke-width="1" /></g><g fill="none" id="planche_6"><circle cx="632.5" cy="7.0" r="0.75" stroke="green" stroke-width="1" /><circle cx="632.5" cy="19.3" r="0.75" stroke="green" stroke-width="1" /><polyline fill="none" points="601.6,25.3 635.9,25.3 635.9,1.0 601.6,1.0 601.6,25.3" stroke="black" stroke-width="1" /><circle cx="602.55" cy="19.3" r="0.25" stroke="pink" stroke-width="1" /><circle cx="602.55" cy="7.0" r="0.25" stroke="pink" stroke-width="1" /><circle cx="602.55" cy="16.1" r="0.4" stroke="red" stroke-width="1" /><circle cx="602.55" cy="3.8" r="0.4" stroke="red" stroke-width="1" /><circle cx="602.55" cy="22.5" r="0.4" stroke="red" stroke-width="1" /><circle cx="602.55" cy="10.2" r="0.4" stroke="red" stroke-width="1" /><circle cx="629.9" cy="1.95" r="0.25" stroke="pink" stroke-width="1" /><circle cx="609.5" cy="1.95" r="0.25" stroke="pink" stroke-width="1" /><circle cx="633.1" cy="1.95" r="0.4" stroke="red" stroke-width="1" /><circle cx="612.7" cy="1.95" r="0.4" stroke="red" stroke-width="1" /><circle cx="626.7" cy="1.95" r="0.4" stroke="red" stroke-width="1" /><circle cx="606.3" cy="1.95" r="0.4" stroke="red" stroke-width="1" /></g><g fill="none" id="planche_7"><circle cx="641.3" cy="19.3" r="0.75" stroke="green" stroke-width="1" /><circle cx="641.3" cy="7.0" r="0.75" stroke="green" stroke-width="1" /><circle cx="823.7" cy="19.3" r="0.75" stroke="green" stroke-width="1" /><circle cx="823.7" cy="7.0" r="0.75" stroke="green" stroke-width="1" /><polyline fill="none" points="637.9,25.3 637.9,1.0 827.1,1.0 827.1,25.3 637.9,25.3" stroke="black" stroke-width="1" /><circle cx="643.9" cy="1.95" r="0.25" stroke="pink" stroke-width="1" /><circle cx="821.1" cy="1.95" r="0.25" stroke="pink" stroke-width="1" /><circle cx="647.1" cy="1.95" r="0.4" stroke="red" stroke-width="1" /><circle cx="824.3" cy="1.95" r="0.4" stroke="red" stroke-width="1" /><circle cx="640.7" cy="1.95" r="0.4" stroke="red" stroke-width="1" /><circle cx="817.9" cy="1.95" r="0.4" stroke="red" stroke-width="1" /></g><g fill="none" id="planche_8"><circle cx="858.1" cy="7.0" r="0.75" stroke="green" stroke-width="1" /><circle cx="858.1" cy="184.2" r="0.75" stroke="green" stroke-width="1" /><circle cx="855.5" cy="4.4" r="0.75" stroke="green" stroke-width="1" /><circle cx="835.1" cy="4.4" r="0.75" stroke="green" stroke-width="1" /><circle cx="855.5" cy="186.8" r="0.75" stroke="green" stroke-width="1" /><circle cx="835.1" cy="186.8" r="0.75" stroke="green" stroke-width="1" /><circle cx="832.5" cy="7.0" r="0.75" stroke="green" stroke-width="1" /><circle cx="832.5" cy="184.2" r="0.75" stroke="green" stroke-width="1" /><polyline fill="none" points="861.5,1.0 861.5,190.2 829.1,190.2 829.1,1.0 861.5,1.0" stroke="black" stroke-width="1" /></g><g fill="none" id="planche_9"><circle cx="894.4" cy="19.3" r="0.75" stroke="green" stroke-width="1" /><circle cx="894.4" cy="7.0" r="0.75" stroke="green" stroke-width="1" /><polyline fill="none" points="863.5,1.0 897.8,1.0 897.8,25.3 863.5,25.3 863.5,1.0" stroke="black" stroke-width="1" /><circle cx="864.45" cy="7.0" r="0.25" stroke="pink" stroke-width="1" /><circle cx="864.45" cy="19.3" r="0.25" stroke="pink" stroke-width="1" /><circle cx="864.45" cy="3.8" r="0.4" stroke="red" stroke-width="1" /><circle cx="864.45" cy="16.1" r="0.4" stroke="red" stroke-width="1" /><circle cx="864.45" cy="10.2" r="0.4" stroke="red" stroke-width="1" /><circle cx="864.45" cy="22.5" r="0.4" stroke="red" stroke-width="1" /><circle cx="891.8" cy="24.35" r="0.25" stroke="pink" stroke-width="1" /><circle cx="871.4" cy="24.35" r="0.25" stroke="pink" stroke-width="1" /><circle cx="888.6" cy="24.35" r="0.4" stroke="red" stroke-width="1" /><circle cx="868.2" cy="24.35" r="0.4" stroke="red" stroke-width="1" /><circle cx="895.0" cy="24.35" r="0.4" stroke="red" stroke-width="1" /><circle cx="874.6" cy="24.35" r="0.4" stroke="red" stroke-width="1" /></g><g fill="none" id="planche_10"><circle cx="930.7" cy="7.0" r="0.75" stroke="green" stroke-width="1" /><circle cx="930.7" cy="19.3" r="0.75" stroke="green" stroke-width="1" /><polyline fill="none" points="899.8,25.3 934.1,25.3 934.1,1.0 899.8,1.0 899.8,25.3" stroke="black" stroke-width="1" /><circle cx="900.75" cy="19.3" r="0.25" stroke="pink" stroke-width="1" /><circle cx="900.75" cy="7.0" r="0.25" stroke="pink" stroke-width="1" /><circle cx="900.75" cy="16.1" r="0.4" stroke="red" stroke-width="1" /><circle cx="900.75" cy="3.8" r="0.4" stroke="red" stroke-width="1" /><circle cx="900.75" cy="22.5" r="0.4" stroke="red" stroke-width="1" /><circle cx="900.75" cy="10.2" r="0.4" stroke="red" stroke-width="1" /><circle cx="928.1" cy="1.95" r="0.25" stroke="pink" stroke-width="1" /><circle cx="907.7" cy="1.95" r="0.25" stroke="pink" stroke-width="1" /><circle cx="931.3" cy="1.95" r="0.4" stroke="red" stroke-width="1" /><circle cx="910.9" cy="1.95" r="0.4" stroke="red" stroke-width="1" /><circle cx="924.9" cy="1.95" r="0.4" stroke="red" stroke-width="1" /><circle cx="904.5" cy="1.95" r="0.4" stroke="red" stroke-width="1" /></g><g fill="none" id="planche_11"><circle cx="939.5" cy="19.3" r="0.75" stroke="green" stroke-width="1" /><circle cx="939.5" cy="7.0" r="0.75" stroke="green" stroke-width="1" /><circle cx="1121.9" cy="19.3" r="0.75" stroke="green" stroke-width="1" /><circle cx="1121.9" cy="7.0" r="0.75" stroke="green" stroke-width="1" /><polyline fill="none" points="936.1,25.3 936.1,1.0 1125.3,1.0 1125.3,25.3 936.1,25.3" stroke="black" stroke-width="1" /><circle cx="942.1" cy="1.95" r="0.25" stroke="pink" stroke-width="1" /><circle cx="1119.3" cy="1.95" r="0.25" stroke="pink" stroke-width="1" /><circle cx="945.3" cy="1.95" r="0.4" stroke="red" stroke-width="1" /><circle cx="1122.5" cy="1.95" r="0.4" stroke="red" stroke-width="1" /><circle cx="938.9" cy="1.95" r="0.4" stroke="red" stroke-width="1" /><circle cx="1116.1" cy="1.95" r="0.4" stroke="red" stroke-width="1" /></g><g fill="none" id="planche_12"><circle cx="1156.3" cy="7.0" r="0.75" stroke="green" stroke-width="1" /><circle cx="1156.3" cy="184.2" r="0.75" stroke="green" stroke-width="1" /><circle cx="1153.7" cy="4.4" r="0.75" stroke="green" stroke-width="1" /><circle cx="1133.3" cy="4.4" r="0.75" stroke="green" stroke-width="1" /><circle cx="1153.7" cy="186.8" r="0.75" stroke="green" stroke-width="1" /><circle cx="1133.3" cy="186.8" r="0.75" stroke="green" stroke-width="1" /><circle cx="1130.7" cy="7.0" r="0.75" stroke="green" stroke-width="1" /><circle cx="1130.7" cy="184.2" r="0.75" stroke="green" stroke-width="1" /><polyline fill="none" points="1159.7,1.0 1159.7,190.2 1127.3,190.2 1127.3,1.0 1159.7,1.0" stroke="black" stroke-width="1" /></g><g fill="none" id="planche_0"><polyline fill="none" points="1161.7,401.0 1357.3,401.0 1357.3,428.5 1161.7,428.5 1161.7,401.0" stroke="black" stroke-width="1" /><circle cx="1163.95" cy="422.3" r="0.25" stroke="pink" stroke-width="1" /><circle cx="1163.95" cy="410.0" r="0.25" stroke="pink" stroke-width="1" /><circle cx="1163.95" cy="419.1" r="0.4" stroke="red" stroke-width="1" /><circle cx="1163.95" cy="406.8" r="0.4" stroke="red" stroke-width="1" /><circle cx="1163.95" cy="425.5" r="0.4" stroke="red" stroke-width="1" /><circle cx="1163.95" cy="413.2" r="0.4" stroke="red" stroke-width="1" /><circle cx="1355.05" cy="422.3" r="0.25" stroke="pink" stroke-width="1" /><circle cx="1355.05" cy="410.0" r="0.25" stroke="pink" stroke-width="1" /><circle cx="1355.05" cy="425.5" r="0.4" stroke="red" stroke-width="1" /><circle cx="1355.05" cy="413.2" r="0.4" stroke="red" stroke-width="1" /><circle cx="1355.05" cy="419.1" r="0.4" stroke="red" stroke-width="1" /><circle cx="1355.05" cy="406.8" r="0.4" stroke="red" stroke-width="1" /><circle cx="1170.9" cy="427.35" r="0.25" stroke="pink" stroke-width="1" /><circle cx="1348.1" cy="427.35" r="0.25" stroke="pink" stroke-width="1" /><circle cx="1167.7" cy="427.35" r="0.4" stroke="red" stroke-width="1" /><circle cx="1344.9" cy="427.35" r="0.4" stroke="red" stroke-width="1" /><circle cx="1174.1" cy="427.35" r="0.4" stroke="red" stroke-width="1" /><circle cx="1351.3" cy="427.35" r="0.4" stroke="red" stroke-width="1" /></g><g fill="none" id="planche_1"><polyline fill="none" points="1359.3,401.0 1554.9,401.0 1554.9,428.5 1359.3,428.5 1359.3,401.0" stroke="black" stroke-width="1" /><circle cx="1361.55" cy="422.3" r="0.25" stroke="pink" stroke-width="1" /><circle cx="1361.55" cy="410.0" r="0.25" stroke="pink" stroke-width="1" /><circle cx="1361.55" cy="419.1" r="0.4" stroke="red" stroke-width="1" /><circle cx="1361.55" cy="406.8" r="0.4" stroke="red" stroke-width="1" /><circle cx="1361.55" cy="425.5" r="0.4" stroke="red" stroke-width="1" /><circle cx="1361.55" cy="413.2" r="0.4" stroke="red" stroke-width="1" /><circle cx="1552.65" cy="422.3" r="0.25" stroke="pink" stroke-width="1" /><circle cx="1552.65" cy="410.0" r="0.25" stroke="pink" stroke-width="1" /><circle cx="1552.65" cy="425.5" r="0.4" stroke="red" stroke-width="1" /><circle cx="1552.65" cy="413.2" r="0.4" stroke="red" stroke-width="1" /><circle cx="1552.65" cy="419.1" r="0.4" stroke="red" stroke-width="1" /><circle cx="1552.65" cy="406.8" r="0.4" stroke="red" stroke-width="1" /><circle cx="1368.5" cy="427.35" r="0.25" stroke="pink" stroke-width="1" /><circle cx="1545.7" cy="427.35" r="0.25" stroke="pink" stroke-width="1" /><circle cx="1365.3" cy="427.35" r="0.4" stroke="red" stroke-width="1" /><circle cx="1542.5" cy="427.35" r="0.4" stroke="red" stroke-width="1" /><circle cx="1371.7" cy="427.35" r="0.4" stroke="red" stroke-width="1" /><circle cx="1548.9" cy="427.35" r="0.4" stroke="red" stroke-width="1" /></g></svg>