<?xml version="1.0" encoding="utf-8" ?>
<svg baseProfile="tiny" height="100%" version="1.2" width="100%" xmlns="http://www.w3.org/2000/svg" xmlns:ev="http://www.w3.org/2001/xml-events" xmlns:xlink="http://www.w3.org/1999/xlink"><defs /><g fill="none" id="panneau"><rect fill="none" height="280" stroke="blue" stroke-width="1" width="200" x="0" y="0" /></g><g fill="none" id="planche_0"><polyline fill="none" points="201.0,1.0 251.0,1.0 251.0,74.0 201.0,74.0 201.0,1.0" stroke="black" stroke-width="1" /><circle cx="207.0" cy="73.05" r="0.25" stroke="pink" stroke-width="1" /><circle cx="245.0" cy="73.05" r="0.25" stroke="pink" stroke-width="1" /><circle cx="203.8" cy="73.05" r="0.4" stroke="red" stroke-width="1" /><circle cx="241.8" cy="73.05" r="0.4" stroke="red" stroke-width="1" /><circle cx="210.2" cy="73.05" r="0.4" stroke="red" stroke-width="1" /><circle cx="248.2" cy="73.05" r="0.4" stroke="red" stroke-width="1" /><circle cx="245.0" cy="1.95" r="0.25" stroke="pink" stroke-width="1" /><circle cx="207.0" cy="1.95" r="0.25" stroke="pink" stroke-width="1" /><circle cx="248.2" cy="1.95" r="0.4" stroke="red" stroke-width="1" /><circle cx="210.2" cy="1.95" r="0.4" stroke="red" stroke-width="1" /><circle cx="241.8" cy="1.95" r="0.4" stroke="red" stroke-width="1" /><circle cx="203.8" cy="1.95" r="0.4" stroke="red" stroke-width="1" /><circle cx="201.95" cy="66.1" r="0.25" stroke="pink" stroke-width="1" /><circle cx="201.95" cy="8.9" r="0.25" stroke="pink" stroke-width="1" /><circle cx="201.95" cy="62.9" r="0.4" stroke="red" stroke-width="1" /><circle cx="201.95" cy="5.7" r="0.4" stroke="red" stroke-width="1" /><circle cx="201.95" cy="69.3" r="0.4" stroke="red" stroke-width="1" /><circle cx="201.95" cy="12.1" r="0.4" stroke="red" stroke-width="1" /><circle cx="245.0" cy="8.7127" r="0.25" stroke="pink" stroke-width="1" /><circle cx="208.9" cy="8.7127" r="0.25" stroke="pink" stroke-width="1" /><circle cx="241.8" cy="8.7127" r="0.4" stroke="red" stroke-width="1" /><circle cx="205.7" cy="8.7127" r="0.4" stroke="red" stroke-width="1" /><circle cx="248.2" cy="8.7127" r="0.4" stroke="red" stroke-width="1" /><circle cx="212.1" cy="8.7127" r="0.4" stroke="red" stroke-width="1" /></g><g fill="none" id="planche_1"><polyline fill="none" points="253.0,74.0 303.0,74.0 303.0,1.0 253.0,1.0 253.0,74.0" stroke="black" stroke-width="1" /><circle cx="259.0" cy="1.95" r="0.25" stroke="pink" stroke-width="1" /><circle cx="297.0" cy="1.95" r="0.25" stroke="pink" stroke-width="1" /><circle cx="262.2" cy="1.95" r="0.4" stroke="red" stroke-width="1" /><circle cx="300.2" cy="1.95" r="0.4" stroke="red" stroke-width="1" /><circle cx="255.8" cy="1.95" r="0.4" stroke="red" stroke-width="1" /><circle cx="293.8" cy="1.95" r="0.4" stroke="red" stroke-width="1" /><circle cx="297.0" cy="73.05" r="0.25" stroke="pink" stroke-width="1" /><circle cx="259.0" cy="73.05" r="0.25" stroke="pink" stroke-width="1" /><circle cx="293.8" cy="73.05" r="0.4" stroke="red" stroke-width="1" /><circle cx="255.8" cy="73.05" r="0.4" stroke="red" stroke-width="1" /><circle cx="300.2" cy="73.05" r="0.4" stroke="red" stroke-width="1" /><circle cx="262.2" cy="73.05" r="0.4" stroke="red" stroke-width="1" /><circle cx="253.95" cy="8.9" r="0.25" stroke="pink" stroke-width="1" /><circle cx="253.95" cy="66.1" r="0.25" stroke="pink" stroke-width="1" /><circle cx="253.95" cy="5.7" r="0.4" stroke="red" stroke-width="1" /><circle cx="253.95" cy="62.9" r="0.4" stroke="red" stroke-width="1" /><circle cx="253.95" cy="12.1" r="0.4" stroke="red" stroke-width="1" /><circle cx="253.95" cy="69.3" r="0.4" stroke="red" stroke-width="1" /><circle cx="297.0" cy="66.2873" r="0.25" stroke="pink" stroke-width="1" /><circle cx="260.9" cy="66.2873" r="0.25" stroke="pink" stroke-width="1" /><circle cx="300.2" cy="66.2873" r="0.4" stroke="red" stroke-width="1" /><circle cx="264.1" cy="66.2873" r="0.4" stroke="red" stroke-width="1" /><circle cx="293.8" cy="66.2873" r="0.4" stroke="red" stroke-width="1" /><circle cx="257.7" cy="66.2873" r="0.4" stroke="red" stroke-width="1" /><circle cx="298.0" cy="35.8686" r="0.25" stroke="red" stroke-width="1" /><circle cx="259.9" cy="35.8686" r="0.25" stroke="red" stroke-width="1" /></g><g fill="none" id="planche_2"><circle cx="311.0" cy="4.4" r="0.75" stroke="green" stroke-width="1" /><circle cx="349.0" cy="4.4" r="0.75" stroke="green" stroke-width="1" /><circle cx="311.0" cy="143.8" r="0.75" stroke="green" stroke-width="1" /><circle cx="349.0" cy="143.8" r="0.75" stroke="green" stroke-width="1" /><polyline fill="none" points="305.0,1.0 355.0,1.0 355.0,147.2 305.0,147.2 305.0,1.0" stroke="black" stroke-width="1" /><circle cx="305.95" cy="7.0" r="0.25" stroke="pink" stroke-width="1" /><circle cx="305.95" cy="141.2" r="0.25" stroke="pink" stroke-width="1" /><circle cx="305.95" cy="3.8" r="0.4" stroke="red" stroke-width="1" /><circle cx="305.95" cy="138.0" r="0.4" stroke="red" stroke-width="1" /><circle cx="305.95" cy="10.2" r="0.4" stroke="red" stroke-width="1" /><circle cx="305.95" cy="144.4" r="0.4" stroke="red" stroke-width="1" /><circle cx="349.0" cy="98.7833" r="0.25" stroke="pink" stroke-width="1" /><circle cx="312.9" cy="98.7833" r="0.25" stroke="pink" stroke-width="1" /><circle cx="352.2" cy="98.7833" r="0.4" stroke="red" stroke-width="1" /><circle cx="316.1" cy="98.7833" r="0.4" stroke="red" stroke-width="1" /><circle cx="345.8" cy="98.7833" r="0.4" stroke="red" stroke-width="1" /><circle cx="309.7" cy="98.7833" r="0.4" stroke="red" stroke-width="1" /><circle cx="349.0" cy="49.4167" r="0.25" stroke="pink" stroke-width="1" /><circle cx="312.9" cy="49.4167" r="0.25" stroke="pink" stroke-width="1" /><circle cx="352.2" cy="49.4167" r="0.4" stroke="red" stroke-width="1" /><circle cx="316.1" cy="49.4167" r="0.4" stroke="red" stroke-width="1" /><circle cx="345.8" cy="49.4167" r="0.4" stroke="red" stroke-width="1" /><circle cx="309.7" cy="49.4167" r="0.4" stroke="red" stroke-width="1" /></g><g fill="none" id="planche_3"><circle cx="401.0" cy="143.8" r="0.75" stroke="green" stroke-width="1" /><circle cx="363.0" cy="143.8" r="0.75" stroke="green" stroke-width="1" /><circle cx="401.0" cy="4.4" r="0.75" stroke="green" stroke-width="1" /><circle cx="363.0" cy="4.4" r="0.75" stroke="green" stroke-width="1" /><polyline fill="none" points="357.0,147.2 407.0,147.2 407.0,1.0 357.0,1.0 357.0,147.2" stroke="black" stroke-width="1" /><circle cx="357.95" cy="141.2" r="0.25" stroke="pink" stroke-width="1" /><circle cx="357.95" cy="7.0" r="0.25" stroke="pink" stroke-width="1" /><circle cx="357.95" cy="138.0" r="0.4" stroke="red" stroke-width="1" /><circle cx="357.95" cy="3.8" r="0.4" stroke="red" stroke-width="1" /><circle cx="357.95" cy="144.4" r="0.4" stroke="red" stroke-width="1" /><circle cx="357.95" cy="10.2" r="0.4" stroke="red" stroke-width="1" /></g><g fill="none" id="planche_4"><circle cx="551.8" cy="64.2" r="0.75" stroke="green" stroke-width="1" /><circle cx="551.8" cy="7.0" r="0.75" stroke="green" stroke-width="1" /><circle cx="412.4" cy="64.2" r="0.75" stroke="green" stroke-width="1" /><circle cx="412.4" cy="7.0" r="0.75" stroke="green" stroke-width="1" /><circle cx="549.2" cy="66.8" r="0.75" stroke="green" stroke-width="1" /><circle cx="415.0" cy="66.8" r="0.75" stroke="green" stroke-width="1" /><circle cx="549.2" cy="4.4" r="0.75" stroke="green" stroke-width="1" /><circle cx="415.0" cy="4.4" r="0.75" stroke="green" stroke-width="1" /><polyline fill="none" points="555.2,70.2 409.0,70.2 409.0,1.0 555.2,1.0 555.2,70.2" stroke="black" stroke-width="1" /><circle cx="549.2" cy="6.8127" r="0.25" stroke="pink" stroke-width="1" /><circle cx="415.0" cy="6.8127" r="0.25" stroke="pink" stroke-width="1" /><circle cx="546.0" cy="6.8127" r="0.4" stroke="red" stroke-width="1" /><circle cx="411.8" cy="6.8127" r="0.4" stroke="red" stroke-width="1" /><circle cx="552.4" cy="6.8127" r="0.4" stroke="red" stroke-width="1" /><circle cx="418.2" cy="6.8127" r="0.4" stroke="red" stroke-width="1" /><circle cx="457.4167" cy="64.2" r="0.25" stroke="pink" stroke-width="1" /><circle cx="457.4167" cy="13.7627" r="0.25" stroke="pink" stroke-width="1" /><circle cx="457.4167" cy="67.4" r="0.4" stroke="red" stroke-width="1" /><circle cx="457.4167" cy="16.9627" r="0.4" stroke="red" stroke-width="1" /><circle cx="457.4167" cy="61.0" r="0.4" stroke="red" stroke-width="1" /><circle cx="457.4167" cy="10.5627" r="0.4" stroke="red" stroke-width="1" /><circle cx="506.7833" cy="64.2" r="0.25" stroke="pink" stroke-width="1" /><circle cx="506.7833" cy="13.7627" r="0.25" stroke="pink" stroke-width="1" /><circle cx="506.7833" cy="67.4" r="0.4" stroke="red" stroke-width="1" /><circle cx="506.7833" cy="16.9627" r="0.4" stroke="red" stroke-width="1" /><circle cx="506.7833" cy="61.0" r="0.4" stroke="red" stroke-width="1" /><circle cx="506.7833" cy="10.5627" r="0.4" stroke="red" stroke-width="1" /><circle cx="414.0" cy="37.2314" r="0.25" stroke="red" stroke-width="1" /><circle cx="451.4667" cy="37.2314" r="0.25" stroke="red" stroke-width="1" /></g><g fill="none" id="planche_5"><circle cx="563.2" cy="143.8" r="0.75" stroke="green" stroke-width="1" /><circle cx="599.3" cy="143.8" r="0.75" stroke="green" stroke-width="1" /><circle cx="563.2" cy="4.4" r="0.75" stroke="green" stroke-width="1" /><circle cx="599.3" cy="4.4" r="0.75" stroke="green" stroke-width="1" /><circle cx="601.9" cy="141.2" r="0.75" stroke="green" stroke-width="1" /><circle cx="601.9" cy="7.0" r="0.75" stroke="green" stroke-width="1" /><polyline fill="none" points="557.2,147.2 557.2,1.0 605.3,1.0 605.3,147.2 557.2,147.2" stroke="black" stroke-width="1" /></g><g fill="none" id="planche_6"><polyline fill="none" points="753.5,5.8627 607.3,5.8627 607.3,1.0 753.5,1.0 753.5,5.8627" stroke="black" stroke-width="1" /></g><g fill="none" id="planche_7"><circle cx="761.5" cy="4.4" r="0.75" stroke="green" stroke-width="1" /><circle cx="797.6" cy="4.4" r="0.75" stroke="green" stroke-width="1" /><circle cx="800.2" cy="7.0" r="0.75" stroke="green" stroke-width="1" /><circle cx="800.2" cy="57.4373" r="0.75" stroke="green" stroke-width="1" /><polyline fill="none" points="755.5,1.0 803.6,1.0 803.6,63.4373 755.5,63.4373 755.5,1.0" stroke="black" stroke-width="1" /><circle cx="760.5" cy="33.9686" r="0.25" stroke="red" stroke-width="1" /><circle cx="798.6" cy="33.9686" r="0.25" stroke="red" stroke-width="1" /></g><g fill="none" id="planche_8"><circle cx="811.6" cy="4.4" r="0.75" stroke="green" stroke-width="1" /><circle cx="847.7" cy="4.4" r="0.75" stroke="green" stroke-width="1" /><circle cx="850.3" cy="7.0" r="0.75" stroke="green" stroke-width="1" /><circle cx="850.3" cy="57.4373" r="0.75" stroke="green" stroke-width="1" /><polyline fill="none" points="805.6,1.0 853.7,1.0 853.7,63.4373 805.6,63.4373 805.6,1.0" stroke="black" stroke-width="1" /></g><g fill="none" id="planche_9"><circle cx="860.7" cy="2.0" r="0.25" stroke="red" stroke-width="1" /><circle cx="898.8" cy="2.0" r="0.25" stroke="red" stroke-width="1" /><circle cx="902.8" cy="6.0" r="0.25" stroke="red" stroke-width="1" /><circle cx="902.8" cy="43.4667" r="0.25" stroke="red" stroke-width="1" /><circle cx="860.7" cy="47.4667" r="0.25" stroke="red" stroke-width="1" /><circle cx="898.8" cy="47.4667" r="0.25" stroke="red" stroke-width="1" /><polyline fill="none" points="855.7,1.0 903.8,1.0 903.8,48.4667 855.7,48.4667 855.7,1.0" stroke="black" stroke-width="1" /></g><g fill="none" id="planche_0"><polyline fill="none" points="905.8,401.0 905.8,462.4373 952.6667,462.4373 952.6667,401.0 905.8,401.0" stroke="black" stroke-width="1" /></g><g fill="none" id="planche_1"><polyline fill="none" points="954.6667,401.0 954.6667,462.4373 1001.5333,462.4373 1001.5333,401.0 954.6667,401.0" stroke="black" stroke-width="1" /></g></svg>